<?xml version="1.0" encoding="utf-8"?>
<svg version="1.1" xmlns="http://www.w3.org/2000/svg" xmlns:xlink="http://www.w3.org/1999/xlink" x="0px" y="0px" viewBox="0 0 256 256" enable-background="new 0 0 256 256" xml:space="preserve">
<g><g><path fill="#FFF" d="M128,10c-27.3,0-56.4,3.1-81.6,14.4C35,29.5,19.2,39.3,19.4,53.3h0v149.3c0,11.6,10.5,20,19.7,25.2c15.5,8.8,33.5,13,51,15.5c22.3,3.2,45.3,3.5,67.7,1c18.4-2,37.3-5.8,54.1-13.9c10.8-5.2,24.7-14.2,24.7-27.8V53.3C236.7,29,188.9,10,128,10z M228.5,202.6c0,9.1-10.5,15.4-17.4,19.1c-14.4,7.5-30.8,11.3-46.7,13.6c-37.1,5.3-80,4.3-114.7-11.3c-8.2-3.7-22.2-10.7-22.2-21.4v-33c2.2,2.1,4.6,4.1,7.1,5.7c11.8,7.9,25.8,12.3,39.5,15.3c36.5,8.1,76.7,8,113-1.2c14.5-3.7,30.5-9.1,41.4-19.8V202.6z M228.5,152.9c0,9.1-10.5,15.4-17.4,19.1c-14.4,7.5-30.8,11.3-46.7,13.6c-37.1,5.3-80,4.3-114.7-11.3c-8.2-3.7-22.2-10.7-22.2-21.4v-33c2.2,2.1,4.6,4.1,7.1,5.7c11.8,7.9,25.8,12.3,39.5,15.3c36.5,8.1,76.7,8,113-1.2c14.5-3.7,30.5-9.1,41.4-19.8V152.9z M228.5,103.1c0,9.1-10.5,15.4-17.4,19.1c-14.4,7.5-30.8,11.3-46.7,13.6c-37.1,5.3-80,4.3-114.7-11.3c-8.2-3.7-22.2-10.7-22.2-21.4V70.6c9.6,9.5,25.3,14.8,36.5,18c28.2,8.1,58.7,9.6,87.9,7.1c25.2-2.2,57.6-7,76.6-25.6V103.1L228.5,103.1z M226.7,59.5c-6.2,10.9-21.5,16.4-32.7,19.9c-21.2,6.8-43.8,9.1-66,9.1c-20.3,0-40.8-2-60.4-7.4c-11.9-3.3-25.3-7.9-34.3-16.7C14.4,46.1,48.2,31.7,62,27.3c37.6-12,81.4-12.3,119.7-3.4C193.5,26.7,238.5,38.8,226.7,59.5z"/></g></g>
</svg>